<svg width="27" height="41" viewBox="0 0 27 41" fill="none" xmlns="http://www.w3.org/2000/svg">
<path d="M10.9559 1.90798C9.84758 2.03931 9.03399 2.2379 8.1211 2.59986C5.91094 3.47751 4.0243 5.2104 2.96086 7.33728C1.51626 10.2265 1.51305 13.4681 2.95126 16.3381C4.28055 18.9903 6.75336 20.9185 9.6618 21.572C10.3537 21.7289 10.8309 21.7834 11.6029 21.8026C12.2499 21.8186 12.9834 21.7834 13.2173 21.7289C13.2749 21.7129 13.307 21.7449 13.4095 21.9115C13.7394 22.456 14.3512 22.9141 14.9438 23.0646C15.0591 23.0935 15.0847 23.1095 15.0431 23.1255C14.9918 23.1415 15.0046 23.1607 15.1167 23.2536C15.2416 23.3497 15.5588 23.702 15.6581 23.8494C15.6933 23.9038 15.6965 23.9038 15.6773 23.8302C15.642 23.6924 15.6869 23.7693 15.8214 24.0864C15.8951 24.253 15.9463 24.4067 15.9367 24.4324C15.9303 24.4548 15.9335 24.4676 15.9495 24.458C15.9656 24.4484 16.0136 24.5285 16.0616 24.6342C16.1609 24.8648 16.1673 24.916 16.0777 24.7591C16.0424 24.6982 16.0232 24.6758 16.036 24.711C16.0937 24.868 16.177 25.3388 16.1802 25.5278C16.1866 25.7296 16.1866 25.7328 16.209 25.5919C16.2282 25.4638 16.2314 25.4734 16.2346 25.6912C16.2378 25.8257 16.2474 25.9859 16.257 26.0435C16.2698 26.1364 16.2666 26.1396 16.2442 26.0724C16.2282 26.0275 16.2154 25.9442 16.2122 25.8834C16.209 25.8225 16.1994 25.7809 16.1898 25.7937C16.1802 25.8033 16.1802 25.8994 16.193 26.0083C16.2122 26.162 16.225 26.2005 16.2634 26.1877C16.382 26.1396 16.257 26.2293 16.0873 26.3094L15.8983 26.3991L16.2634 27.2543C16.4652 27.722 16.8881 28.6957 17.202 29.4196C17.5159 30.1403 18.1052 31.5049 18.5152 32.4466C20.6645 37.3986 21.1066 38.4108 21.1226 38.43C21.129 38.4332 21.2347 38.3948 21.3596 38.3435L21.587 38.2506L21.6671 38.382C21.7632 38.5485 22.0387 38.8144 22.2309 38.9233C22.6601 39.1731 23.3039 39.1731 23.7331 38.9265C24.063 38.7375 24.3161 38.4204 24.4442 38.0488C24.5019 37.8759 24.5083 37.7926 24.4987 37.5075C24.4891 37.3217 24.4666 37.1392 24.4442 37.0975C24.4058 37.027 24.4154 37.0206 24.614 36.931C24.7325 36.8765 24.8254 36.822 24.8254 36.806C24.8254 36.7772 24.3385 35.6337 23.6563 34.0642C23.163 32.9303 22.0002 30.246 21.0745 28.1128C20.2513 26.2197 19.6363 24.8135 19.6203 24.7975C19.6171 24.7911 19.521 24.8231 19.4089 24.868C19.1751 24.9641 19.1847 24.9641 19.2039 24.9096C19.2103 24.8904 19.1527 24.8199 19.0726 24.7591C18.8356 24.5765 18.3807 24.0768 18.2526 23.859C18.1148 23.6284 18.102 23.6252 18.1949 23.8494C18.2302 23.9327 18.2558 24.0031 18.2494 24.0128C18.2238 24.0384 18.0636 23.606 18.086 23.5707C18.0988 23.5483 18.0956 23.5419 18.0764 23.5515C18.0348 23.5771 17.9259 23.3337 17.9547 23.2824C17.9707 23.26 17.9675 23.2504 17.9483 23.2632C17.9291 23.276 17.8842 23.212 17.8426 23.1159C17.7369 22.866 17.7337 22.8372 17.8266 22.9974C17.8714 23.0774 17.9002 23.1127 17.8874 23.0774C17.8073 22.8372 17.7753 22.5713 17.7881 22.2703C17.7977 22.0653 17.7913 21.9467 17.7721 21.9595C17.7561 21.9692 17.7945 21.8763 17.8554 21.7513C18.0572 21.3542 18.1148 21.0883 18.1116 20.595C18.1084 20.2619 18.0924 20.1113 18.0412 19.9416L17.9771 19.7206L18.0604 19.6533C18.243 19.5092 18.7074 19.0831 19.0021 18.782C20.4691 17.2862 21.4493 15.2618 21.7344 13.1317C21.7632 12.9299 21.792 12.4815 21.8048 12.1388C21.933 7.9683 19.4281 4.14376 15.5523 2.59665C14.7932 2.29556 14.1238 2.11298 13.2141 1.96564C12.9066 1.91759 11.2506 1.87275 10.9559 1.90798ZM12.9098 3.49353C13.4607 3.5672 13.5152 3.57361 13.8227 3.65369C14.9502 3.93876 15.9784 4.43525 17.0098 5.19759C17.2852 5.39939 18.3871 6.46603 18.3871 6.53009C18.3871 6.5429 18.4223 6.59736 18.4672 6.64861C18.5665 6.76072 18.9605 7.33087 19.0598 7.51025C19.1911 7.74087 19.4986 8.36869 19.6139 8.64736C20.1232 9.86134 20.3442 11.2771 20.2257 12.5872C20.1136 13.8813 19.7388 15.0664 19.1302 16.0786C18.89 16.479 18.5088 17.0203 18.3871 17.1356C18.3775 17.1453 18.3295 17.2029 18.2782 17.2638C18.1213 17.4592 17.7016 17.882 17.4902 18.0645C17.3749 18.1606 17.2756 18.2471 17.266 18.2567C17.2276 18.3016 16.5133 18.7756 16.225 18.9518C15.8727 19.1664 15.1456 19.538 14.9245 19.6181C13.7426 20.0409 12.8553 20.2363 12.0065 20.2651C10.4882 20.3163 8.96032 19.9031 7.52532 19.0543C7.1954 18.8589 6.67649 18.5098 6.63165 18.4521C6.62204 18.4425 6.56438 18.3945 6.50352 18.3496C6.32415 18.2151 5.94618 17.8595 5.63868 17.5328C5.13579 17.0043 4.68415 16.3509 4.3318 15.643C4.00188 14.9895 3.96344 14.8903 3.77766 14.256C3.34204 12.7666 3.32922 11.133 3.73922 9.6083C3.76485 9.5122 3.79688 9.38728 3.8129 9.33603C3.83852 9.22712 3.96344 8.87478 4.05954 8.63134C4.24532 8.15728 4.72579 7.27642 4.95641 6.98173C4.97883 6.95611 5.06211 6.8408 5.1486 6.72548C5.23188 6.61017 5.30876 6.51087 5.31836 6.50126C5.32797 6.49165 5.41446 6.39236 5.51055 6.27705C5.80524 5.93111 6.35297 5.41541 6.63165 5.22001C6.6925 5.17838 6.75016 5.13353 6.75977 5.12072C6.76938 5.11111 6.94555 4.98619 7.15696 4.85165C7.58297 4.56978 8.31969 4.18541 8.68165 4.05408C9.01157 3.93236 9.48563 3.77541 9.5593 3.75939C9.59133 3.75298 9.665 3.73376 9.71946 3.71775C9.85399 3.6729 10.0462 3.63447 10.5715 3.54158C11.2794 3.41666 12.1955 3.39743 12.9098 3.49353ZM18.7939 24.5509C18.8676 24.6149 18.9605 24.711 19.0021 24.7687C19.0438 24.8295 18.9989 24.7975 18.8996 24.6918C18.8035 24.5957 18.6818 24.4804 18.6273 24.442C18.5761 24.4035 18.5601 24.3843 18.5953 24.4035C18.6306 24.4195 18.7202 24.4868 18.7939 24.5509ZM16.2218 25.0025C16.2314 25.0281 16.2282 25.041 16.209 25.0313C16.1898 25.0217 16.177 24.9993 16.177 24.9801C16.177 24.9353 16.1994 24.9449 16.2218 25.0025ZM16.2634 25.4061C16.2538 25.4317 16.2442 25.4221 16.2442 25.3869C16.241 25.3517 16.2506 25.3324 16.2602 25.3453C16.2698 25.3549 16.2731 25.3837 16.2634 25.4061Z" fill="white"/>
<path d="M18.024 19.7201C18.0144 19.7361 18.0208 19.7746 18.0369 19.8098C18.0593 19.8643 18.0625 19.8643 18.0625 19.7842C18.0657 19.6977 18.0497 19.6753 18.024 19.7201Z" fill="white"/>
<path d="M13.2617 21.7771C13.2617 21.7963 13.2745 21.8187 13.2938 21.8284C13.313 21.838 13.3162 21.8251 13.3066 21.7995C13.2841 21.7419 13.2617 21.7323 13.2617 21.7771Z" fill="white"/>
<path d="M15.6953 23.9547C15.6953 23.9739 15.7081 23.9964 15.7273 24.006C15.7466 24.0156 15.7498 24.0028 15.7402 23.9771C15.7177 23.9195 15.6953 23.9099 15.6953 23.9547Z" fill="white"/>
<path d="M24.4796 37.1072C24.4988 37.152 24.5213 37.1841 24.5245 37.1777C24.5437 37.1584 24.4956 37.0271 24.47 37.0271C24.454 37.0271 24.4604 37.0623 24.4796 37.1072Z" fill="white"/>
<path d="M21.5326 38.3052C21.5006 38.3244 21.5134 38.3468 21.5743 38.3852C21.6576 38.4397 21.6576 38.4397 21.6191 38.366C21.5999 38.3244 21.5807 38.2891 21.5775 38.2859C21.5743 38.2827 21.5551 38.2924 21.5326 38.3052Z" fill="white"/>
</svg>
